<svg xmlns="http://www.w3.org/2000/svg" xml:space="preserve" width="1500" height="162" viewBox="0 0 1500 162" data-version="1" data-id="lg_ZE4fzHUhlfAqdZE4td"><g id="outer-wrapper" data-padding="20" transform="matrix(1,0,0,1,0,0)"><g id="inner-wrapper" transform="matrix(0.964349376114082,0,0,0.964349376114082,10,2.887700534759361)"><rect width="119.453" height="119.453" x="620.2059384541659" y="-650.9667407407408" fill="#298e9e" rx="0" ry="0" transform="matrix(.54 0 0 .54 175.08 392.81)"></rect><rect width="416.734" height="161.59" x="158.79624676524952" y="-400.065" fill="none" rx="0" ry="0" transform="translate(472.13 400.27)"></rect><path fill="#053247" d="M662.2632467652495 125.42000000000002H636.6332467652496Q636.0732467652496 125.42000000000002 636.0732467652496 124.72000000000003L636.3532467652495 26.480000000000018Q636.3532467652495 25.920000000000016 636.9132467652496 25.920000000000016H664.4232467652496Q672.4532467652496 25.920000000000016 679.0132467652495 29.83000000000004Q685.4432467652496 33.740000000000066 689.1432467652495 40.200000000000045T692.8432467652494 54.200000000000045Q692.8432467652494 60.34000000000003 690.0532467652495 65.65000000000003Q687.2532467652495 70.96000000000004 683.4132467652495 74.24000000000001Q687.5332467652495 78.36000000000001 689.8432467652494 83.80000000000001Q692.1432467652495 89.25 692.1432467652495 95.25999999999999Q692.1432467652495 103.56 688.1632467652495 110.40999999999997Q684.1132467652494 117.24999999999994 677.3432467652494 121.33999999999997Q670.5732467652495 125.41999999999996 662.2632467652495 125.41999999999996M664.4232467652496 42.889999999999986H653.5332467652495V65.37H664.4232467652496Q669.3832467652495 65.37 672.4532467652496 61.84000000000003Q675.5232467652495 58.32000000000005 675.5232467652495 54.200000000000045Q675.5232467652495 49.660000000000025 672.2432467652495 46.27000000000004Q668.9632467652496 42.89000000000004 664.4232467652496 42.89000000000004M662.2632467652495 82.69000000000005H653.5332467652495L653.3932467652495 107.96000000000004H662.2632467652495Q667.4232467652496 107.96000000000004 671.1232467652495 104.19000000000005T674.8232467652495 95.26000000000005Q674.8232467652495 90.09000000000003 671.1232467652495 86.39000000000004T662.2632467652495 82.69000000000005M713.0232467652495 125.42000000000007H696.8232467652495Q696.1232467652495 125.42000000000007 696.1232467652495 124.72000000000008L696.2632467652495 26.480000000000075Q696.2632467652495 25.920000000000073 696.8232467652495 25.920000000000073H712.8832467652495Q713.4432467652496 25.920000000000073 713.4432467652496 26.480000000000075L713.5832467652494 124.72000000000008Q713.5832467652494 125.42000000000007 713.0232467652495 125.42000000000007M766.6432467652495 125.42000000000007H720.4132467652495Q719.8632467652494 125.42000000000007 719.8632467652494 124.72000000000008L720.0032467652495 26.62000000000012Q720.0032467652495 25.92000000000013 720.6932467652495 25.92000000000013H736.6132467652494Q737.3132467652495 25.92000000000013 737.3132467652495 26.62000000000012L737.1732467652495 107.8200000000001H766.6432467652494Q767.3432467652494 107.8200000000001 767.3432467652494 108.5200000000001V124.72000000000008Q767.3432467652494 125.42000000000007 766.6432467652494 125.42000000000007M817.1132467652494 125.42000000000007H770.8932467652494Q770.3332467652494 125.42000000000007 770.3332467652494 124.72000000000008L770.4732467652494 26.62000000000012Q770.4732467652494 25.92000000000013 771.1732467652494 25.92000000000013H787.0932467652494Q787.7932467652495 25.92000000000013 787.7932467652495 26.62000000000012L787.6532467652494 107.8200000000001H817.1132467652494Q817.8132467652495 107.8200000000001 817.8132467652495 108.5200000000001V124.72000000000008Q817.8132467652495 125.42000000000007 817.1132467652494 125.42000000000007 "></path><path fill="#053247" d="M845.1032467652495 126.83000000000004Q837.4932467652495 126.83000000000004 831.0732467652496 122.92000000000002Q824.7232467652495 119.00999999999999 820.9132467652496 112.48000000000002Q817.1132467652495 105.95000000000005 817.1132467652495 98.13V91.57Q817.1132467652495 90.80000000000001 817.8032467652495 90.80000000000001H833.8632467652495Q834.4232467652496 90.80000000000001 834.4232467652496 91.57V98.13Q834.4232467652496 102.81 837.5632467652495 106.19Q840.7132467652496 109.57999999999998 845.1032467652495 109.57999999999998Q849.5732467652496 109.57999999999998 852.7232467652495 106.12Q855.8632467652495 102.67000000000002 855.8632467652495 98.13Q855.8632467652495 92.88999999999999 849.0132467652495 88.98000000000002Q847.9032467652495 88.28000000000003 846.1232467652495 87.27000000000004T841.8932467652495 84.93000000000006Q839.4532467652496 83.61000000000007 837.1432467652495 82.31000000000006Q834.8432467652494 81.02000000000004 832.6832467652496 79.83000000000004Q824.8632467652495 75.23000000000002 821.0532467652495 68.28000000000003T817.2432467652495 52.670000000000016Q817.2432467652495 44.710000000000036 821.1532467652496 38.29000000000002Q825.0732467652496 31.939999999999998 831.3832467652496 28.200000000000045Q837.7032467652496 24.460000000000036 845.1032467652497 24.460000000000036Q852.7232467652495 24.460000000000036 859.0732467652497 28.230000000000018Q865.4232467652496 32.06999999999999 869.2332467652496 38.43000000000001Q873.0332467652497 44.78000000000003 873.0332467652497 52.670000000000016V64.40000000000003Q873.0332467652497 64.96000000000004 872.4832467652496 64.96000000000004H856.4232467652496Q855.8632467652496 64.96000000000004 855.8632467652496 64.40000000000003L855.7232467652497 52.670000000000016Q855.7232467652497 47.650000000000034 852.5832467652497 44.5Q849.4332467652497 41.360000000000014 845.1032467652497 41.360000000000014Q840.7132467652497 41.360000000000014 837.5632467652497 44.710000000000036Q834.4232467652496 48.06000000000006 834.4232467652496 52.670000000000016Q834.4232467652496 57.35000000000002 836.4132467652496 60.49000000000001Q838.4032467652496 63.639999999999986 843.7132467652497 66.5Q844.2732467652497 66.77999999999997 846.2932467652497 67.88999999999999Q848.3232467652497 69.00999999999999 850.8032467652497 70.37Q853.2732467652497 71.73000000000002 855.3032467652497 72.82Q857.3232467652497 73.89999999999998 857.7432467652496 74.11000000000001Q864.8632467652496 78.09000000000003 869.0232467652496 83.88Q873.1732467652496 89.68 873.1732467652496 98.13Q873.1732467652496 106.30000000000001 869.4032467652496 112.79000000000002Q865.5632467652497 119.29000000000002 859.2132467652496 123.06T845.1032467652497 126.82999999999998M871.9832467652495 124.71999999999997L889.7132467652496 26.47999999999996Q889.8532467652497 25.91999999999996 890.4132467652496 25.91999999999996H911.1532467652496Q911.7132467652496 25.91999999999996 911.8532467652497 26.47999999999996L928.8932467652496 124.71999999999997Q928.9632467652498 125.41999999999996 928.3332467652497 125.41999999999996H912.4832467652498Q911.7832467652497 125.41999999999996 911.7132467652498 124.71999999999997L910.1732467652498 114.24999999999994H890.6932467652498L889.1632467652496 124.72000000000003Q889.0932467652494 125.42000000000002 888.4632467652496 125.42000000000002H872.5432467652495Q871.9832467652495 125.42000000000002 871.9832467652495 124.72000000000003M907.3132467652495 98.96000000000004L901.4432467652496 58.81000000000006L900.6132467652494 53.50000000000006L899.9832467652495 58.81000000000006L893.5532467652495 98.96000000000004ZM947.0932467652494 125.42000000000002H932.7832467652495Q931.6632467652496 125.42000000000002 931.6632467652496 124.44L931.5232467652495 27.039999999999964Q931.5232467652495 25.91999999999996 932.6432467652496 25.91999999999996H945.5632467652495L969.7232467652495 82.26999999999998L969.0232467652495 27.039999999999964Q969.0232467652495 25.91999999999996 970.2732467652495 25.91999999999996H984.4532467652493Q985.2932467652495 25.91999999999996 985.2932467652495 27.039999999999964L985.4332467652494 124.57999999999998Q985.4332467652494 125.41999999999996 984.7332467652493 125.41999999999996H972.1632467652496L947.3732467652496 72.76999999999998L948.4232467652496 124.29999999999995Q948.4232467652496 125.41999999999996 947.0932467652494 125.41999999999996M1038.3532467652494 125.41999999999996H992.1332467652494Q991.5732467652495 125.41999999999996 991.5732467652495 124.71999999999997L991.7132467652496 26.47999999999996Q991.7132467652496 25.91999999999996 992.2732467652495 25.91999999999996H1038.2132467652496Q1038.7732467652495 25.91999999999996 1038.7732467652495 26.619999999999948V42.60999999999996Q1038.7732467652495 43.16999999999996 1038.2132467652496 43.16999999999996H1008.8932467652495V65.50999999999993H1038.2132467652496Q1038.7732467652495 65.50999999999993 1038.7732467652495 66.06999999999994L1038.9132467652494 82.26999999999992Q1038.9132467652494 82.82999999999993 1038.3532467652494 82.82999999999993H1008.8932467652495V107.81999999999994H1038.3532467652494Q1038.9132467652494 107.81999999999994 1038.9132467652494 108.51999999999992V124.8599999999999Q1038.9132467652494 125.4199999999999 1038.3532467652494 125.4199999999999M514.0532467652495 18.15999999999991A27 27 0 1 0 514.0532467652495 72.15999999999991A27 27 0 1 0 514.0532467652495 18.15999999999991 "></path><path fill="#053247" d="M568.7832467652495 18.160000000000025A27 27 0 1 0 568.7832467652495 72.16000000000003A27 27 0 1 0 568.7832467652495 18.160000000000025M514.0532467652496 72.71000000000004A27 27 0 1 0 514.0532467652496 126.71000000000004A27 27 0 1 0 514.0532467652496 72.71000000000004 "></path><path fill="#053247" d="M568.7832467652495 72.71000000000004A27 27 0 1 0 568.7832467652495 126.71000000000004A27 27 0 1 0 568.7832467652495 72.71000000000004 "></path></g><rect width="561" height="162" x="469.5" y="0" id="space-saver" fill="transparent" stroke="transparent"></rect></g></svg>